<svg id="Group_4" data-name="Group 4" xmlns="http://www.w3.org/2000/svg" width="21.6" height="25.2" viewBox="0 0 21.6 25.2">
  <path id="Icon_awesome-etsy" data-name="Icon awesome-etsy" d="M21.6,20.025c-.1.6-.773,6.188-.872,7.425C14.1,27.208,8.359,27.183,0,27.45V26.016c2.557-.5,3.41-.451,3.431-1.983.1-4.068.2-13.733,0-18.113C3.373,4.319,2.749,4.415,0,3.9V2.461c4.156.133,14.4.481,20.419-.211-.2,2.152-.436,7.116-.436,7.116H18.675c-.622-2.409-1.055-5.091-3.08-5.091H7.889c-.577,0-.6.2-.6.548v9.211c3.262.028,4.978-.141,4.978-.141,1.675-.053,1.55-.478,2.292-3.67H16a73.748,73.748,0,0,0-.1,9.014H14.456c-.515-2.255-.51-3.434-2.222-3.459,0,0-1.209-.113-4.95-.113v7.819c0,1.462.8,2.152,2.489,2.152h5.02c3.58,0,3.744-1.406,5.555-5.611H21.6Z" transform="translate(0 -2.25)"/>
</svg>
