<svg xmlns="http://www.w3.org/2000/svg" width="28.2" height="28.2" viewBox="0 0 28.2 28.2">
  <g id="Group_7" data-name="Group 7" transform="translate(1.5 1.5)">
    <g id="Icon_feather-instagram" data-name="Icon feather-instagram">
      <path id="Path_1" data-name="Path 1" d="M9.3,3H21.9a6.3,6.3,0,0,1,6.3,6.3V21.9a6.3,6.3,0,0,1-6.3,6.3H9.3A6.3,6.3,0,0,1,3,21.9V9.3A6.3,6.3,0,0,1,9.3,3Z" transform="translate(-3 -3)" fill="none" stroke="#000" stroke-linecap="round" stroke-linejoin="round" stroke-width="3"/>
      <path id="Path_2" data-name="Path 2" d="M22.09,16.236a5.04,5.04,0,1,1-4.246-4.246A5.04,5.04,0,0,1,22.09,16.236Z" transform="translate(-4.45 -4.43)" fill="none" stroke="#000" stroke-linecap="round" stroke-linejoin="round" stroke-width="3"/>
      <path id="Path_3" data-name="Path 3" d="M26.25,9.75h0" transform="translate(-6.72 -4.08)" fill="none" stroke="#000" stroke-linecap="round" stroke-linejoin="round" stroke-width="3"/>
    </g>
  </g>
</svg>
